<?xml version="1.0" encoding="UTF-8" standalone="no"?>
<svg
   version="1.1"
   id="svg1129"
   width="449.38803"
   height="315.9881"
   viewBox="0 0 449.38803 315.9881"
   xmlns="http://www.w3.org/2000/svg"
   xmlns:svg="http://www.w3.org/2000/svg">
  <defs id="defs1133" />
  <g
     id="g1135"
     transform="translate(-312.77731,-340.41949)">
    <path
       style="fill:#93b4e4;fill-opacity:1"
       d="m 355.27731,656 c -20.73978,-0.46088 -22.82204,-0.67228 -26.61647,-2.7022 -6.63464,-3.54936 -10.09748,-7.01518 -13.08244,-13.0937 L 312.77731,634.5 V 498 361.5 l 2.68578,-5.09002 c 3.1405,-5.9518 8.37958,-10.85052 14.76341,-13.80432 4.37782,-2.02562 6.01435,-2.10566 43.05081,-2.10566 36.9626,0 38.6797,0.0835 43,2.09184 6.16373,2.86522 10.5315,6.75527 13.76961,12.26356 l 2.73039,4.6446 0.26402,136.94976 c 0.29605,153.56783 0.78571,143.00051 -6.98639,150.77261 -2.18994,2.18994 -6.35183,5.06679 -9.24865,6.39299 -4.81608,2.20488 -6.71203,2.43155 -22.14796,2.64797 -9.28456,0.13017 -27.00602,0.0117 -39.38102,-0.26333 z"
       id="path1610" />
    <path
       style="fill:#2a5fb7;fill-opacity:1"
       d="m 682.27731,656 c -18.69545,-0.45599 -20.86394,-0.69466 -24.63445,-2.71138 -5.73286,-3.0663 -10.25189,-7.84929 -13.0079,-13.76767 l -2.33811,-5.02095 -0.01,-135.57186 c -0.0108,-150.28554 -0.44039,-140.56023 6.57026,-148.7506 1.90931,-2.2306 6.04739,-5.32057 9.19572,-6.86659 l 5.72448,-2.81095 38,0.0155 c 37.43196,0.0152 38.07474,0.0496 43,2.29935 6.52513,2.98052 11.81544,8.23107 14.6882,14.57778 l 2.3118,5.1074 0.26432,133.94484 c 0.29213,148.04085 0.62213,139.95087 -6.06729,148.73872 -2.19406,2.88233 -5.43058,5.38466 -9.74138,7.53161 l -6.45565,3.21515 -18.5,0.28482 c -10.175,0.15666 -27.725,0.0598 -39,-0.21517 z"
       id="path4695" />
    <path
       style="fill:#4278d2;fill-opacity:1"
       d="m 506.27731,655.969 c -13.17711,-0.82322 -21.37123,-5.97126 -26.10959,-16.4036 -1.7661,-3.88842 -1.84741,-10.00783 -1.86766,-140.5654 l -0.0212,-136.5 2.89884,-6.12755 c 3.26696,-6.9057 9.60704,-12.52657 16.49374,-14.62272 5.88044,-1.78988 74.40355,-1.76642 80.31379,0.0275 6.11641,1.85649 12.1438,6.93616 15.68977,13.22278 l 3.10228,5.5 0.26417,135.44536 c 0.22968,117.76444 0.069,136.11657 -1.2306,140.58717 -1.95224,6.71547 -8.05699,13.59795 -15.13143,17.05915 l -5.52675,2.70398 -30.18769,0.10217 c -16.60321,0.0562 -34.01267,-0.1368 -38.68767,-0.42886 z"
       id="path4693" />
  </g>
</svg>
